<svg width="24" height="24" viewBox="0 0 24 24" fill="none" xmlns="http://www.w3.org/2000/svg">
<g clip-path="url(#clip0_251_1017)">
<path d="M13.2858 3.80359V10.0714H18.9108L10.7144 20.1964V13.9286H5.08936L13.2858 3.80359Z" fill="#FFE88A"/>
<path fill-rule="evenodd" clip-rule="evenodd" d="M14.0892 3.80362C14.0892 3.4632 13.8747 3.15972 13.5538 3.04611C13.2329 2.93251 12.8753 3.03342 12.6611 3.29801L4.46465 13.423C4.26977 13.6638 4.23059 13.9951 4.36396 14.2746C4.49732 14.5542 4.77949 14.7322 5.08923 14.7322H9.91066V20.1964C9.91066 20.5369 10.1252 20.8403 10.446 20.954C10.7669 21.0676 11.1246 20.9667 11.3388 20.7021L19.5352 10.5771C19.7302 10.3363 19.7692 10.005 19.6359 9.72547C19.5026 9.44592 19.2204 9.2679 18.9106 9.2679H14.0892V3.80362ZM13.2857 10.875C12.8419 10.875 12.4821 10.5153 12.4821 10.0715V6.0734L6.77361 13.125H10.7142C11.158 13.125 11.5178 13.4848 11.5178 13.9286V17.9266L17.2262 10.875H13.2857Z" fill="#FFD48A"/>
</g>
<defs>
<clipPath id="clip0_251_1017">
<rect width="18" height="18" fill="white" transform="translate(3 3)"/>
</clipPath>
</defs>
</svg>
